<svg xmlns="http://www.w3.org/2000/svg" viewBox="0 0 24 24" fill="none"
	stroke="#169B62" stroke-width="2" stroke-linecap="round" stroke-linejoin="round">
	<!-- "clipboard-pen" from Lucide (lucide.dev), ISC licence, recoloured to the
	     brand green. Stock 2px stroke: the 2.5px variant was compared at 16/32/48px
	     and is no cleaner. Single colour by design — #169B62 is legible on both a
	     light and a dark tab strip, so no prefers-color-scheme variant is needed. -->
	<path d="M16 4h2a2 2 0 0 1 2 2v2" />
	<path d="M21.34 15.664a1 1 0 1 0-3.004-3.004l-5.01 5.012a2 2 0 0 0-.506.854l-.837 2.87a.5.5 0 0 0 .62.62l2.87-.837a2 2 0 0 0 .854-.506z" />
	<path d="M8 22H6a2 2 0 0 1-2-2V6a2 2 0 0 1 2-2h2" />
	<rect x="8" y="2" width="8" height="4" rx="1" />
</svg>
